<svg version="1.2" xmlns="http://www.w3.org/2000/svg" viewBox="0 0 509 411" width="509" height="411">
	<title>7355674-ai</title>
	<style>
		tspan { white-space:pre } 
		.s0 { fill: #000000 } 
		.s1 { fill: #ffffff } 
		.s2 { fill: #ff7000 } 
		.s3 { fill: #ff0000 } 
	</style>
	<g id="OBJECTS">
		<g id="&lt;Group&gt;">
			<path id="&lt;Path&gt;" class="s0" d="m132.2 169.1c-34.5 15.7-75.8 62.2-56.7 153.6 19.1 91.5 104 90.1 134.9 52.8 21.3-25.7 24.9-66 24.9-64.7 5.7 23 9.4 21.4 18.9 23 9.5 1.5 19.1 0 30.8 0 11.7 0 15.6-5.8 15.6-5.8l30.7 0.9c0 0 2.8 21.7 12.2 37.5 9.3 15.8 37.2 15.8 55 8.1 17.7-7.7 19.2-54 18.2-61.5-1-7.6-3.8-22.4-3.8-22.4 0 0 2.9 1.5 6.2-4.2 3.3-5.7 0.8-18.4 0-35.3-0.8-16.8-11.1-35.9-11.1-35.9 0 0 4.1 2 8.7 0 4.7-2 4.5-9.7 4.1-17.2-0.4-7.5-10.2-14.8-10.2-14.8-5.2-10.8-19.5-6.1-26-7.4-6.5-1.3-36.1-0.5-41.1-3.2-5.1-2.7-12.2-9.1-12.2-9.1 0 0-5.7-25.8-23.5-38.1-17.8-12.2-39.4-13.6-39.4-13.6l-4.4-6.9c0 0 3.2-6.6 3.2-6.9-0.1-0.3 5.9-0.6 7-3.5 7 2.6 14.3 1.2 17.1-2.9 2.7-4.2 14.1-1.4 14.1-1.4 0 5.2 0 5.2 0 5.2 0 0 2 0.7 6.1 2.8 4.1 2.2 9.5 3.9 10.1 3.5 0.6-0.3 3.2-5.1 3.2-5.1 0 0 14.4 3.2 23.1 4.4 8.7 1.1 10.6 1.7 13.1-1.1 2.5-2.8 3.5-11.3 2.2-12.6-1.4-1.4-10.2-3.2-10.2-3.2 0 0 0.7-5.6-2.2-6.9-2.9-1.4-9.1 1.9-15.9-0.6-6.7-2.5-21.3-6.2-21.3-6.2 0 0 11.1-19.7 13-23 2-3.3 26.1-11.6 26.1-11.6 0 0 2.5 6.8 8.7 8.3 6.2 1.6 14.1 0.4 19-8.3 4.8-8.7 5-22-12-26.6-17-4.7-18.8 16.6-18.8 16.6 0 0-20.5 8.9-26.3 11.4-5.8 2.5-17 24.4-17.8 26.7-0.7 2.3-0.7 2.3-0.7 2.3 0 0-10.4-0.4-11.6 0.3-1.2 0.6-3.9 9-3.9 9 0 0-7.7 1.1-11.6 3.2-3.9 2-3.5 4.5-7.9 4.1-4.5-0.4-9.4-2.6-9.4-2.6 0 0 2.3-15.4 2.7-20.4 0.3-5-4.9-18.6-17.3-22-12.4-3.5-22.6 8.9-22.6 8.9 0 0-4.6-5.9-13.9-5.8-9.3 0.2-11.3 2.7-13.3 6.1-2 3.5-3 8-3 8 0 0-0.5-4.5-6.9-8-6.4-3.4-10.7-6.1-10.7-6.1 0 0 2.4-12.8-5.8-14.3-8.3-1.4-14.4 11.4-13.3 21.6 1.2 10.2 11.8 6.4 16.1 0.8 6.7 2.5 8.9 2.8 11.6 6 2.7 3.3 2.5 12.5 3.8 15.4 1.4 2.9 0.6 1.6 0.6 1.6 0 0-3.8 8.8-4.6 8.9-0.8 0.2-11.9-0.2-16.6 2.3-4.7 2.5-3.7 9.1-1.3 11.6 2.4 2.5 6.8 5.6 9.5 5.1 2.8-0.5 6.6-1.9 6.6-1.9 0 0 7.8 14.2 13.7 19.2-3.2 4.7-3.2 4.7-3.2 4.7l-6.4-0.2c0 0-0.4-10.7-9.6-11.4-9.2-0.8-18.1 7.6-20 14-1.9 6.4 1.6 9.3 8.1 11.5 6.6 2.1 9.3 1.8 12.6 1.5 3.3-0.4 10-5.2 10-5.2l-7.7 16.4c0 0-17.6-3.8-39 1.6-21.5 5.4-28.6 10.8-28.8 17-0.2 6.2 7.3 1.3 12.3 0.6 5.1-0.8 8.2 1.4 8.2 1.4z"/>
			<g id="&lt;Group&gt;">
				<path id="&lt;Path&gt;" class="s1" d="m192.3 81.3c-2.5 3.1-3.5 5.7-4 9.5-0.2 2.5-1.6 10.6 0 12.7-6.6-8.1-5.2-19.8 1.5-27.3 4.7-5.4 11.8-8.8 19-9 2.1-0.1 4.3 0.1 6.3 0.7 4.8 1.5 8.7 5.3 10.9 9.8 2.3 4.6 2.9 9.7 2.7 14.8-0.1 3.4-1.1 7.5-4.3 8.7 0.3-7.7 0.5-16-3.6-22.6q-0.5 7.4-1 14.7c-0.1 1.7-0.4 3.7-1.9 4.4q-0.9-9.2-3-18.3c-1-0.6-1.9 1-2 2.2q-0.6 7.7-1.2 15.4c-2.3-5.3-3.7-11-4.1-16.8-2.4 5.5-3.8 11.5-4 17.5-2.1-5.6-3.5-11.5-3.9-17.5-3.5 5.2-5.1 11.6-4.5 17.8-2.7-5.1-3.8-11-2.9-16.7z"/>
				<path id="&lt;Path&gt;" class="s1" d="m229.7 68.7c-5-4.8-12.6-8-19.3-4.9 6.5-0.6 12.9 3.4 16.6 8.9 3.8 5.4 5.3 12.1 6.1 18.7 1.2-3 1.5-6.4 1-9.5 2.4 2.6 3.9 6.1 4.2 9.7-0.4-4.5 1.8-7.9-0.4-12.5-1.7-3.7-5.2-7.5-8.2-10.4z"/>
				<g id="&lt;Group&gt;">
					<path id="&lt;Path&gt;" class="s2" d="m213.7 114.4c-3.7 2.2-8.5 2.8-12.6 1.8-5-1.3-6.2-5.1-9.9-7.4 5.1 3.1 13.5 3.8 19.2 2.1 4.4-1.3 8.1-4.2 11.7-7-1.4 4.4-4.4 8.2-8.4 10.5z"/>
				</g>
				<path id="&lt;Path&gt;" class="s1" d="m205.1 59.8c-3.8 0.6-7.2 2-10.4 4.1q1.4-6.8 3.6-13.4c0.3-0.7 0.5-1.4 1-2 2-2.3 11.3-3.6 14.1-3 3.7 0.9 7 3.5 8 7.1-2.9-1.3-5.4-1.4-8.5-1.6q3.1 2.8 5.9 5.9c-2.8-0.9-5.7-1.5-8.6-1.7 2.8 1.2 5.3 3 7.5 5.1-4.1-0.9-8.4-1.1-12.6-0.5z"/>
				<path id="&lt;Path&gt;" class="s1" d="m254.9 65.5q0.1 0.3 0.3 0.6c-7.2-6.8-15.7-7.5-24.9-8.4-1.8-0.2-3.8-0.2-5.2 0.9 0-9.6 2.1-15.4 12-17.3 1.3-0.2 2.8-0.5 4.2-0.3 1.2 0.2 2.3 0.7 3.4 1.3 4.8 2.5 8.8 6.5 11.3 11.3-3.3-2.1-7-3.6-10.8-4.6 3.9 1.9 7.3 4.9 9.6 8.6-3.5-2.5-7.8-4-12.1-4.2 5.3 0.3 9.8 7.9 12.2 12.1z"/>
				<path id="&lt;Path&gt;" class="s1" d="m252.3 123.9c0.6-2-0.3-5.7-0.4-7.8-2 2.9-4.1 4.5-5.2 8.2-3.2-7.6 3.5-13.3 10.5-14.3 1-0.2 2.1-0.3 3.1-0.1 2.4 0.6 4 2.9 4.5 5.3 0.6 3.3-0.8 7-3.5 9.1q0.2-3.9 0-7.9c-1.8 2.2-3.3 4.6-4.5 7.2q-0.1-3.8-0.2-7.7c-1.9 2.4-3.3 5.1-4.3 8z"/>
				<path id="&lt;Path&gt;" class="s1" d="m166.3 128.5c0.6-2-0.3-5.7-0.4-7.8-1.9 2.9-4.1 4.6-5.2 8.2-3.2-7.6 3.5-13.3 10.5-14.3 1-0.2 2.1-0.3 3.1 0 2.4 0.5 4 2.8 4.5 5.2 0.6 3.4-0.8 7.1-3.5 9.2q0.2-4 0-8c-1.8 2.3-3.3 4.7-4.5 7.2q-0.1-3.8-0.2-7.7c-1.9 2.4-3.3 5.1-4.3 8z"/>
				<path id="&lt;Path&gt;" class="s1" d="m308.4 84.2c-0.3-2.7-1.2-5.4-2.6-7.7q-1.2 3.2-3.1 6-0.6-3.2-1.3-6.5-1.5 3.1-2.4 6.4c-0.4-1.2-0.3-2.6-1-3.6-1.3-2.1-4.4-1.6-6.7-0.9 1-0.3 1.8-6.6 3.4-7.8 2.8-2.1 8.5-0.5 11.7-0.3 1.3 0.1 2.7 0.2 3.8 0.9 4.3 2.8-2.1 10.4-1.8 13.5z"/>
				<g id="&lt;Group&gt;">
					<path id="&lt;Path&gt;" class="s2" d="m342.2 79.7c2 0.1 4 0.1 5.9 0.7 0.7 0.2 1.5 0.6 1.5 1.4 0 1-1.3 1.4-2.4 1.4-11.6 0-21.7-4.9-33-6.2-0.3 0-0.6-0.1-0.9-0.2-0.7-0.5-0.4-1.7 0.3-2.2 2.8-1.7 9 1.8 11.6 2.5 5.5 1.5 11.3 2.4 17 2.6z"/>
				</g>
				<g id="&lt;Group&gt;">
					<path id="&lt;Path&gt;" class="s2" d="m324.8 85.3q16.6 3.8 33.2 7.5c0.3 0.1 0.7 0.2 0.9-0.1 0.1-0.1 0.1-0.3 0.1-0.5q0.1-1.3 0.2-2.6c0-0.2 0.1-0.4 0-0.6-0.2-0.3-0.6-0.4-0.9-0.5q-16.6-3-33-6.9z"/>
				</g>
				<path id="&lt;Path&gt;" class="s1" d="m312.7 80.9c2 0.6 4.8 1.1 9.2 1.2 0.4 2.5 0 5.1-0.9 7.5-1.8-3.3-5.7-5.4-9.5-5.1z"/>
				<g id="&lt;Group&gt;">
					<path id="&lt;Path&gt;" class="s2" d="m358.9 96.3c-1.9 1.9-5.1 1.8-7.8 1.5-7.7-1-15.7-2.7-23.4-4.4-1.3-0.3-3.1-1.2-2.6-2.5 0.8-2.4 14.7 2.5 16.6 2.8q8.6 1.5 17.2 2.6z"/>
				</g>
				<path id="&lt;Path&gt;" class="s1" d="m318.8 96.5c0.3 0.1 0.7 0.2 1 0 0.3-0.2 0.4-0.5 0.5-0.8q0.7-1.6 1.3-3.2c-4.6 1.4-10.5-0.5-12.7-4.9q0 2.9 0 5.8c0 0.2 9.2 3 9.9 3.1z"/>
				<path id="&lt;Path&gt;" class="s1" d="m242.1 121.4c-2-0.3-8.8-2.2-9.6 0.7-0.2 0.5-0.1 1.1-0.1 1.7-1.7-1.3-1.5-3.7-0.2-5.3 0.7-0.8 2.9-2.3 3.2-0.1 0 0.2 0 0.4 0.2 0.5l0.3 0.1q3.5-0.1 7-0.1-0.3 1.1-0.5 2.2l-0.1 0.3z"/>
				<g id="&lt;Group&gt;">
					<path id="&lt;Path&gt;" class="s2" d="m240.9 100.2c-0.9-1.1-3-2.1-4.3-1-0.1 0.2-0.2 0.5-0.3 0.7q-0.5 1.9-0.4 3.8c-0.9-1.4-1.7-3.1-1.7-4.8 0-3.8 3.5-4.6 6.7-4 1.7 0.4 3.2 1.2 4.7 2.2 2.9 1.8 5.7 3.8 8.4 5.9q1.9 1.4 3.8 2.8c0.8 0.6 1.8 1.7 1.2 2.6-5.4-1.7-11.8 1.4-13.8 6.7-0.4-4-1.9-7.8-4.2-11q3 2.2 6.1 4.3-2.9-4.2-6.2-8.2z"/>
				</g>
				<path id="&lt;Path&gt;" class="s1" d="m233.1 109.2c-2.6 8.5-13.3 13.2-21.6 12.9-3.8-0.2-7.6-1.3-11.1-2.8 6 0.4 12.1-0.6 17.8-2.7 4.8-1.9 8.8-6.6 12-10.5-0.9 4.5-3.9 8.6-7.9 10.8 4.3-1.4 8.1-4.1 10.8-7.7z"/>
				<path id="&lt;Path&gt;" class="s1" d="m252.7 89.9q0.2-0.8 0.4-1.5c1.9-0.2 3.7-0.6 5.5-0.2 1.2 0.3 3.6 2.8 4.5 2.8-0.9 0-2.1-0.5-2.9 0-0.5 0.4-0.8 0.9-1.1 1.4q-2 3.8-4 7.5c-0.1-1.4 0.3-2.8 0.7-4.2q0.5-1.8 1-3.7-1.9 3.3-3.8 6.5-1.4-1.3-3.1-2.1 1.6-3.1 2.8-6.5z"/>
				<g id="&lt;Group&gt;">
					<path id="&lt;Path&gt;" class="s2" d="m260 103.6c-0.1-1-1.8-1.4-1.6-2.4 0-0.2 0.1-0.3 0.2-0.5 1.7-2.6 2.9-5.5 5-7.8 0 0 0.4 2 0.4 2.2-0.1 1.1-0.6 1.8-1.1 2.7-1.1 1.9-2.1 3.7-2.9 5.8z"/>
				</g>
				<path id="&lt;Path&gt;" class="s1" d="m229.8 173.3c-2.8-2.3-6.4-3.6-9.8-2.6q10.1-23.5 20.1-47c2.1 0.2 4.2 1.8 5.3 3.6-5.3 12.8-11.7 25-17.5 37.7q0.7 0.2 1.3 0.4c7.1-11.9 13.6-24.2 19.2-36.9q-7.8 20.8-17.2 41c-0.5 1.1-0.5 2.8-1.4 3.8z"/>
				<g id="&lt;Group&gt;">
					<path id="&lt;Path&gt;" class="s2" d="m235.2 177.4c-1.1-0.6-1.6-2-1.6-3.3 0.1-1.2 0.6-2.5 1.1-3.6 5.7-13.3 10.7-26.7 15.9-40.2-0.7 1.7-0.5 4.1-0.8 5.9-0.3 2.8-1.4 5.1-2.4 7.7-1.3 3-2 6.3-3.1 9.4q-4.2 12.2-9.1 24.1z"/>
				</g>
				<g id="&lt;Group&gt;">
					<path id="&lt;Path&gt;" class="s2" d="m267.2 121.5c0 2.2-1.3 4.9-2.9 6.3-2.4 2.1-4.8 1-7.5 1.5 2.8-0.5 5.3-2.2 7-4.4 1.3-1.8 3.1-5.8 2.2-8.1 0.6 1.5 1.1 3.1 1.2 4.7z"/>
				</g>
				<path id="&lt;Path&gt;" class="s1" d="m226.1 182.6c-0.7-1.5-5.4-2.3-6.8-2.5-2-0.2-4.6-0.5-6.3 0.8 0.5-2 2.1-7.2 4.3-7.8 2.2-0.6 4.5-0.8 6.6-0.2 2.1 0.6 4.1 2.1 5 4.1-0.8-0.9-2-1.2-3.2-1.3-1.2 0-2.4 0.1-3.5-0.2 2.3 0.5 4.4 2.4 5.2 4.7-2.1-1.5-4.6-2.3-7.2-2.4 2.3 1.2 4.8 2.4 5.9 4.8z"/>
				<path id="&lt;Path&gt;" class="s1" d="m235.3 183.3q0 0.6-0.1 1.1c-0.9 2.6-2 5.1-3.5 7.3 0.6-3.9 2.1-8.3 0.8-12.3 1.7 0.3 2.8 2.2 2.8 3.9z"/>
				<path id="&lt;Path&gt;" class="s1" d="m215.8 184.2c-0.7 0.7-1.1 2-1.7 3.6q-2 5.6-4.1 11.2-4.1 11.2-8.3 22.4c-5.4 14.7-11 29.4-17 43.9-0.3 0.8-0.6 1.5-0.5 2.3 0 0.8 0.4 1.5 0.7 2.2 1.2 4.3-3.7 8.7-2.1 12.9 0.7 1.9 2.7 3.1 4.7 3.7-0.9-4-1.7-8.4 0.2-12 1.7-3.4 4.8-3 8-2.5 0.3 0 0.8 0 1-0.2 0.2-0.3 0.2-0.5 0.2-0.8 0.2-8.9 4.4-17.1 7.1-25.5 1-3.2 1.8-6.5 2.7-9.7 1.7-6.1 3.9-12.1 6-18q4-11 7.9-22c-1.9 5.8-5.5 11.3-7.8 16.9-2.3 5.8-4.3 11.7-6.3 17.6-4 11.8-8 23.5-12.9 35.1-0.2 0.6-0.5 1.2-1 1.6-0.5 0.4-1.4 0.5-1.8 0-0.9-1.2 2-8.8 2.4-10.3q1.5-5.3 3.4-10.4c2.4-6.7 5.6-12.8 7.9-19.4q7.8-22 16.4-43.6c-1.6 0-4-0.3-5.1 1z"/>
				<g id="&lt;Group&gt;">
					<path id="&lt;Path&gt;" class="s2" d="m226.8 198c-9.4 23.9-17.5 48.3-24.3 73.1-0.3-0.6-0.1-1.3 0-1.9 3.6-16.7 8.2-33.2 13.7-49.3 2-5.9 4.7-11.8 6.2-17.9 1.4-5.2 4.5-9.8 4.7-15.3 2.7 3.4 1.1 7.8-0.3 11.3z"/>
				</g>
				<path id="&lt;Path&gt;" class="s1" d="m193 164.4c5 2.3 9.9 5.3 14.6 8.3-10.8-14.2-28-20.5-45.3-21.3-8.7-0.5-17.5 0.5-26 2.8-7.2 2-17.4 4.4-20.6 11.9 1.3 1.1 3.3 0.4 4.8-0.3 4.7-2.2 8.8-5.5 14.1-4.8 5.5 0.7 10.6 3.4 16.2 3.7 6 0.3 11.7-2.1 17.6-3.5l0.3-0.1q-0.1 0-0.1 0 0.7-0.1 1.3-0.2l-1.2 0.2c4.6-0.4 9.3 0 13.8 1.3 8.3 2.5 15.5 7.8 22.1 13.4-3.6-4.1-7.2-8.2-11.6-11.4z"/>
				<g id="&lt;Group&gt;">
					<path id="&lt;Path&gt;" class="s2" d="m229.4 200.6c12.5 27.1 11.7 76.7 10.4 93.6-2.9-7.8-2-11.7-2.4-29-0.4-17.3-7.5-51.2-10.5-56.8 1-4.5 2.5-7.8 2.5-7.8z"/>
				</g>
				<g id="&lt;Group&gt;">
					<path id="&lt;Path&gt;" class="s2" d="m181.6 130.9c1.8-1.9 2.5-3.9 2.1-6.4-0.2-1.4-0.4-2.9-0.9-4.2-0.3-0.9-1.6-2.4-1.7-3.2 0.3 2.8 0.2 6.5-0.8 9.2-0.7 2-2 3.8-3.8 4.8-2.2 1.2-4.8 1.2-7.3 1.1 3.8 2.5 9.2 1.9 12.4-1.3z"/>
				</g>
				<g id="&lt;Group&gt;">
					<path id="&lt;Path&gt;" class="s2" d="m192.9 127.5c-0.6-0.4-6.7-2.9-6.1-0.3q-0.4-1.7-0.7-3.4c1.6-0.2 4.4 0 5.8 1 0.8 0.6 1.4 1.7 1 2.7z"/>
				</g>
				<g id="&lt;Group&gt;">
					<path id="&lt;Path&gt;" class="s2" d="m259 66.3c-0.3 3-0.9 6.1-0.9 9.2-0.8-0.7-1.5-1.6-1.7-2.6-0.1-0.6 0.1-1.2 0.2-1.9 0.9-3.4 1.1-7 1.3-10.5 0.1-1 0.1-2.1-0.4-3.1 0.8 1.5 1.8 2.2 1.9 4 0 1.5-0.3 3.3-0.4 4.9z"/>
				</g>
				<path id="&lt;Path&gt;" class="s1" d="m266.7 94.3c0.2-3.3-2.8-6.6-5.8-7.7-1.2-0.4-8.4-1-8.5 0.4 0.1-1.1 0.7-2.1 1.6-2.7 3.2-2.5 7.2-1.4 10.5 0.3 1.1 0.6 2.2 1.4 2.9 2.4 1.2 1.7 1.2 4 0.8 6.1-0.1 0.4-0.2 0.8-0.4 1.1-0.3 0.3-0.8 0.4-1.1 0.1z"/>
				<path id="&lt;Path&gt;" class="s1" d="m282 85c-2.7 1.6-5.8 2.3-8.9 2.4-3.4 0.2-3-2-5.8-2.7 3.3 0.2 6.4 0.6 9.4-1 2.5-1.4 4.9-3.2 7.6-4.1 2.8-0.9 5.7-0.7 8.6-0.4 0.8 0 1.6 0.1 2.3 0.5 0.7 0.3 1.3 1.1 1.3 1.9-3.3-0.8-6.9-0.9-9.9 0.5-1.7 0.8-3.1 2-4.6 2.9z"/>
				<g id="&lt;Group&gt;">
					<path id="&lt;Path&gt;" class="s2" d="m291.6 86.6c-3.3 1-4.9 3.5-8.1 4.7-3 1.2-6.4 1.1-9.3-0.1 1.5 0.6 3.3 0.1 4.9-0.5 4.1-1.5 7.5-5 11.6-6.2 3.3-0.9 6.7 0.5 9.9 1.9-2.9-1-6.1-0.7-9 0.2z"/>
				</g>
				<g id="&lt;Group&gt;">
					<path id="&lt;Path&gt;" class="s2" d="m249.9 80.1c-1.9 0.3-3.8-0.1-5.6-0.7 4-0.3 7.3-1.2 8.7-5.3 0.7 0.5 1.2 1.3 1.2 2.2-0.1 2.1-2.4 3.5-4.3 3.8z"/>
				</g>
				<g id="&lt;Group&gt;">
					<path id="&lt;Path&gt;" class="s2" d="m246.5 86.5c2.2 2.5 2.5 8-2.2 7.1-0.2-0.1-0.5-0.1-0.6-0.3-0.1-0.2 0-0.4 0-0.6 0.2-1.2 0.3-2.4 0-3.6-0.4-1.6-1.6-3.6-2.6-5 2 0.1 4.1 1 5.4 2.4z"/>
				</g>
				<path id="&lt;Path&gt;" class="s1" d="m189.2 137.3c-1.7 4.4-3.9 8.7-6.4 12.8q5.3 2 10.2 4.8 1.3-3.8 2.7-7.6c-1-0.2-1.8 0.7-2.5 1.4-1 1-2.1 1.8-3.3 2.4-0.2-0.6 0.1-1.3 0.4-1.9q2.1-4.1 3.7-8.3c0.2-0.3 0.1-0.9-0.2-0.9z"/>
				<path id="&lt;Path&gt;" class="s1" d="m214.7 171.8c-2.2-4.8-4.7-11.6-3-16.9 0.7-2.4 0.1-6.5 2.5-8.2-3.6 1.6-5.3 2.6-6.5 6.7-1.1 3.5-0.8 7.3 0.4 10.5 0.7 1.7 1.6 3.3 2.8 4.7 0.8 0.9 3.4 2.2 3.8 3.2z"/>
				<path id="&lt;Path&gt;" class="s1" d="m192.8 130.9c1.7-2.1 3.9-3.3 5.7-5.1 2.6-2.7-3-3-2.6-3.8-1.5 2.6-2.1 6-3.1 8.9z"/>
				<path id="&lt;Path&gt;" class="s1" d="m133.9 173c-14.6 5.2-26.6 15.3-37.4 33.9-17.2 29.8-20.1 64.8-18.4 87.3 1.5-24.2 9.7-46.8 9.7-46.8-3.5 30.4-1.8 47.4 0 59 0-25.9 4.6-50.7 7.5-56.9-2.9 46.7 1.5 54.9 3.3 62.5-2.7-29.5 1.7-55.2 7.5-77.2 5.9-22 26.9-59.5 70.4-61.8-17.8-6.9-33.8-3.2-42.6 0z"/>
				<path id="&lt;Path&gt;" class="s1" d="m132.7 337.1c6.9 11.3 16.2 23.3 29.2 27.9 12.7 4.5 26-2.2 34.4-11.8 6.4-7.4 10.5-16.6 13.5-25.9 4.6-14 7.3-28.9 5.6-43.5-1.4 15.2-7.3 34.2-13 48.3 3.8-16 4.1-25.9 4.6-35.9-3.3 14.4-6.3 30.8-13.5 43.7 2.2-7 4.2-14.1 6.2-21.1 1.1-4.2 2.3-8.5 1.1-12.6-2.7 11.1-6.7 22-11.9 32.2-2.8 5.5-8.3 12.2-13.7 15.3-4.6 2.6-10.2 3.1-15.4 2-10.2-2.1-21.6-9.6-27.1-18.6z"/>
				<path id="&lt;Path&gt;" class="s1" d="m167.7 241c-5.3 1.8-9.5 6.2-12.1 11.2-2.6 5-3.7 10.6-4.6 16.2-1.9 11.8-1.4 21.9 2.9 33.1 1.5 3.8 3.3 7.6 6 10.7 2.7 3.2 6.4 5.6 10.5 6.1 8.4 1.1 10.2-3.8 13.4-10-1.1 2.1-3.2 3.7-5.6 4.2 2.2-1.9 3.8-4.6 4.5-7.4-1.4 1.7-3.5 2.9-5.7 3.4 2-2.2 3.2-5.2 3.3-8.2-1.7 2.6-4.6 4.5-7.6 4.2-4.3-0.5-6.8-5.1-8-9.3-3.3-11.1-3.1-23.2 0.6-34.2 0.6-2 1.5-4.1 3.1-5.6 3.6-3.2 9.4-0.3 10.1 4.3-0.5-3.4-1.8-6.7-3.8-9.5 2.3 1.4 4.5 3.3 6.2 5.4-0.7-0.8-3.1-8.1-2.8-9 2 1 3.7 3 4.7 5 0.4-1.9-0.6-3.8-1.5-5.5-1.2-2.1-2.5-4.3-4.7-5.3-2.6-1.2-6.2-0.7-8.9 0.2z"/>
				<path id="&lt;Path&gt;" class="s1" d="m200.9 280.8c0.6-0.9 1.2-1.9 1.5-3 0.2-1.1-0.1-2.4-0.9-3.2-1.5-1.3-9.5-0.3-11.1 0.6-1.1 0.6-1.8 2-1.1 3.1-0.5-0.7 5.6-1.3 6.2-1.3 2.5 0.2 4.8 1.1 5.4 3.8z"/>
				<g id="&lt;Group&gt;">
					<path id="&lt;Path&gt;" class="s2" d="m120.7 307.3c-8.4-33.3 0.3-74.7 15.5-96 15.2-21.3 34.3-17.2 44.1-12.8-18.3-3.2-32.4 2.4-42.6 19.2-21.9 36.2-17 69.8-17 89.6z"/>
				</g>
				<g id="&lt;Group&gt;">
					<path id="&lt;Path&gt;" class="s2" d="m229 264.1c2.4 42.1-6.7 110.3-56.6 124.9 23 1.8 43-27.7 47.6-39.1 11.7-29.2 12.8-67.1 9-85.8z"/>
				</g>
				<path id="&lt;Path&gt;" class="s1" d="m315.1 138.8c-10.2-14.4-28.6-20.4-45.9-23.6 0.5 3.4 0.7 7.6 0.4 11-0.3 3.4-2.4 7-5.8 7.6-2.2 0.3-5-0.4-6.2 1.5-0.4 0.6-0.4 1.4-0.4 2.2 0 4.8 1.9 9.7 5.2 13.3q0.3-5.1 0.5-10.3c2.1 4.9 5.4 9.3 9.5 12.7q-1.4-7.6-2.7-15.3 4.8 7.5 9.5 15.1c-1.2-1.9-1.1-9-1-11.3 0.3-4.6 1.6-6.1 6.2-5.8 10.8 0.5 20.4 15.6 24.5 24.4-1.7-6.9-5.6-13-9.4-18.9 6 5.3 11.1 11.8 14.9 18.9-1.4-6.4-3.9-12.7-7.3-18.3 9.4 10 15.8 22.5 22.1 34.7-1.3-13.6-6.3-26.7-14.1-37.9z"/>
				<path id="&lt;Path&gt;" class="s1" d="m375.2 178.4c6.9 0.2 13.8 0.4 20.7 0.8 2.3 0.1 4.8 0.3 6.7 1.6 3 2.2 5.6 8.7 5.4 12.3-0.9-3.5-4.5-5.7-8-6.4-3.6-0.6-7.2 0.1-10.8 0.5-7.3 0.8-14.6 0.7-21.9-0.5 7.7-1.4 15.4-2.3 23.2-2.5q-17.9-0.5-35.9-1c-5.6-0.2-11.1-0.2-15.6-4.1-3.2-2.8-6.4-5.7-8.7-9.4 8.8 6.1 19.7 7.9 30.2 8.3q7.4 0.2 14.7 0.4z"/>
				<g id="&lt;Group&gt;">
					<path id="&lt;Path&gt;" class="s2" d="m416.7 198.7q-0.1 6-0.2 12.1c-1.2-2.7-1.2-5.7-1.5-8.7-0.7-5.1-6.3-6.8-5.8-12.7 4.6 1.2 7.6 4.7 7.5 9.3z"/>
				</g>
				<g id="&lt;Group&gt;">
					<path id="&lt;Path&gt;" class="s2" d="m388 205.8q4.4 0.2 8.9 0c5.9-0.4 8.4-4 9.3-9.8 3.9 1.7 3.5 9.5 0.2 11.5-4.3 2.6-13.7-1.4-18.4-1.7z"/>
				</g>
				<g id="&lt;Group&gt;">
					<path id="&lt;Path&gt;" class="s2" d="m368.2 210.6c1.5 0.1 3.1 0.1 4.4 0.7 2.3 1 2.9 3.4 3.3 5.5 1.8 9.5 5.2 21 1 30.3 1.8-10.2-4.3-20-6.1-30.2-0.1-0.6-0.2-1.3-0.9-1.7-0.4-0.3-1-0.4-1.5-0.5q-13.7-1.8-27.5-3.1c9.2 0 18.1-1 27.3-1z"/>
				</g>
				<path id="&lt;Path&gt;" class="s1" d="m347 222.8c2.9 1.2 10.5-0.7 13.7-1-8.7-3.1-16.4-7.2-25.7-8.3 1.5 5.4 6.1 9.9 8.6 14.9 2.6 5.3 6.3 11.3 11.3 14.8 4.4 3.2 10.6 4.3 15.1 1.4q-7.2-3.4-14.3-6.7 6.1 0.1 12.1-0.7-7-4.4-14.5-7.9 5.6-0.6 11.3-0.6-9-2.5-17.6-5.9z"/>
				<g id="&lt;Group&gt;">
					<path id="&lt;Path&gt;" class="s2" d="m383.8 210c-1.8 0.3-4.5 1.2-6.4 1-1.8 6.7 20 1.6 23.6 1.3-4.8-3.5-11.3-3.4-17.2-2.3z"/>
				</g>
				<g id="&lt;Group&gt;">
					<path id="&lt;Path&gt;" class="s2" d="m419.1 277.7c-0.5-2.9-3.8-4.5-5-7.2-0.6-1.3-0.7-2.7-0.8-4.1-0.5-8.5-1.6-17-4-25.2-1.2-4.1-2.8-8.1-4.9-11.8-1.9-3.5-5.3-6.5-7-10.1-0.4-0.8-0.6-1.6-0.5-2.5 0.2-0.8 0.9-1.6 1.7-1.6 1.2-0.1 2 1 2.6 2 5.1 9.2 10.1 18.2 13.2 28.3 3.4 10.8 2.9 21.3 4.7 32.2z"/>
				</g>
				<g id="&lt;Group&gt;">
					<path id="&lt;Path&gt;" class="s2" d="m392.5 276.1q7.6-0.7 15.2-0.9c3.1-0.1 6.8 0.2 8.5 2.8 1.3 2 0.9 4.6 0.4 6.9-0.1 0.4-0.3 0.9-0.7 1.1-0.3 0.1-0.7-0.1-1-0.3-1.6-1.4-1-4.6-2.9-5.6-0.5-0.3-1.2-0.3-1.8-0.4q-8.7-0.3-17.3-0.6z"/>
				</g>
				<path id="&lt;Path&gt;" class="s1" d="m377.2 286.9c0.6-0.3 1.2-0.5 1.5-1.1 0.2-0.4 0.2-0.9 0.4-1.3 0.4-1.2 2-1.6 3.2-1.2 1.2 0.5 2.1 1.6 2.6 2.8 1.3 2.7 1.5 6.1 0.4 8.9-0.9-3-2.9-5.6-5.5-7.4 0 1.9-0.4 3.9-1 5.7q-1.1-2.4-2.3-4.8c-1 1.6-1.5 3.5-1.7 5.4q-0.9-1.6-1.9-3.2c-0.1-0.2-0.3-0.4-0.5-0.4-0.2 0.1-0.4 0.4-0.4 0.7q-0.3 1.6-0.6 3.2-1.5-1.7-2.9-3.5-0.8 2-1.5 4-1.3-2-2.6-3.9c-0.4 1.7-1 3.4-1.9 4.9-6.3-6.3 12.2-7.9 14.7-8.8z"/>
				<g id="&lt;Group&gt;">
					<path id="&lt;Path&gt;" class="s2" d="m325.8 196.5c4.1-1.1 4.6-6.9 4.2-10.3-2.5 3.3-8.4 5.9-12.4 5.7-3.2-0.2-6.2-1.5-9.1-2.8-16.2-7.3-32-16.2-44.5-28.8 2.4 8 8.4 11.9 14.9 16.5 6.6 4.8 14.2 8.1 21.8 11.2q9.9 4.1 20 7.7c1.7 0.6 3.4 1.2 5.1 0.8z"/>
				</g>
				<g id="&lt;Group&gt;">
					<path id="&lt;Path&gt;" class="s2" d="m371 203c-5-0.7-10.3-1.9-15.4-1.9-4.4 0.1-7.5 0.4-11.6-2-3.5-2.1-6.3-5-9.1-7.9 1.6 4.6 5.5 9 9.6 11.6 1.3 0.8 2.7 1.5 4.2 1.8 1.3 0.2 2.6 0.2 3.9 0.2q9.3-0.4 18.4-1.8z"/>
				</g>
				<g id="&lt;Group&gt;">
					<path id="&lt;Path&gt;" class="s2" d="m244.6 178.5c0 0-1.4-0.9 1.3 13.2 2.7 14.2 22.1 109.9 24.4 118.4 2.4 8.6 23.7 8.6 44.9 12.1 21.3 3.5 20.7 3.5 26.8 2.9 6.2-0.6 33-13.1 33-13.1 0 0-24.3 8.7-33 9.4-8.6 0.8-60.4-8.5-65-11.3-4.7-2.7-26.7-118.4-27.8-124.5-1-6.2-4.6-7.1-4.6-7.1z"/>
				</g>
				<path id="&lt;Path&gt;" class="s1" d="m283.7 201.9c0.7-0.8 1.8-1.6 3.2-2.2q3.1-1.4 6.2-2.5c-2.8-0.5-5.7 0.2-8.3 1.3-1.7 0.6-3.4 1.4-4.6 2.7-1.2 1.3-1.9 3.2-1.4 4.9-1.1-1.7-1.2-3.9-0.4-5.8 0.8-1.8 2.6-3.2 4.6-3.5-2.2 0.6-4.4 1.2-6.3 2.5-1.9 1.2-3.5 3.3-3.5 5.5-0.8-1.6-0.7-3.6 0.2-5.1 1-1.5 2.8-2.5 4.5-2.5-3.7 0.7-7.3 2.7-9.8 5.6-0.5-1.2 0.1-2.7 1-3.7 1-0.9 2.3-1.4 3.6-1.8 9.8-3.1 20.4-3.6 30.4-1.5 0.6 0.2 1.1 0.3 1.5 0.7 0.6 0.5 0.6 1.3 0.8 2.1 0.3 2.1 1.1 4.1 2.4 5.8-5.1 2-10.4 3.3-15.5 5.1-2.1 0.8-4 2-6.2 2.6-0.5 0.2-6.3 0.5-6.2 0.3 1.8-4 1.3-7.7 3.8-10.5z"/>
				<path id="&lt;Path&gt;" class="s1" d="m280.2 216.6c2.1 0.7 4.6 0.5 6.8 0.3 2.3-0.2 4.6-0.7 6.9-1.3 4.7-1.2 9.3-2.8 13.9-4.2 1.8-0.6 1-3.5-0.8-2.9-4.4 1.5-8.8 3-13.4 4.3q-3.2 0.9-6.4 1.6c-2.3 0.5-4.7 0.5-7 1.1-0.5 0.1-0.5 0.9 0 1.1z"/>
				<path id="&lt;Path&gt;" class="s1" d="m282.1 221.4c4.6 0.5 9.2 0.3 13.7-0.6q3.4-0.6 6.6-1.6c2-0.7 4.7-1.2 6.3-2.6 0.9-0.7 0.2-2.4-0.9-2.3-1.1 0.1-2 0.6-3 1q-1.6 0.5-3.2 1-3.1 1-6.3 1.7c-4.4 1-8.8 1.7-13.2 2.2-0.8 0.1-0.8 1.1 0 1.2z"/>
				<path id="&lt;Path&gt;" class="s1" d="m283.3 226.7c4.7 0.5 9.3 0.5 13.9-0.8 2.2-0.6 4.2-1.4 6.3-2q1.6-0.5 3.2-0.8c1.1-0.3 2.4-0.2 3.4-0.6 1.4-0.6 0.9-2.9-0.6-2.3l-0.2 0.1c-0.6 0.2-1 0.8-0.6 1.4l0.1 0.2q0.7-0.8 1.3-1.7c-1.8-0.6-4.4 0.3-6.1 0.7-2.2 0.7-4.4 1.5-6.5 2.2-4.7 1.5-9.4 2-14.2 2.4-0.8 0-0.8 1.1 0 1.2z"/>
				<path id="&lt;Path&gt;" class="s1" d="m284.7 232.5c4.5 0.5 8.8 0.7 13.3 0.2q3.2-0.3 6.4-0.9 1.6-0.3 3.3-0.7c1-0.2 2-0.3 2.7-1.1 0.6-0.7 0.3-1.7-0.5-2-1-0.3-2 0.1-3 0.4q-1.6 0.3-3.3 0.6-3 0.6-6.1 1c-4.2 0.5-8.5 0.9-12.8 0.8-1.1 0-1 1.6 0 1.7z"/>
				<path id="&lt;Path&gt;" class="s1" d="m285.3 237.7c2 0.1 4.1 0.4 6.1 0.3q2.8-0.1 5.6-0.4c3.8-0.5 7.8-1 11.4-2.5 1.6-0.6 1-2.9-0.8-2.6-1.8 0.3-3.6 0.9-5.4 1.3-1.9 0.4-3.7 0.7-5.6 1q-2.8 0.5-5.6 0.8c-1.9 0.2-3.8 0.6-5.7 0.7-0.9 0-0.9 1.3 0 1.4z"/>
				<path id="&lt;Path&gt;" class="s1" d="m278.8 245.9c0.3 0.2 0.7 0.3 1 0.4 0.4 0 0.8 0.1 1.3 0.1 0.7 0 1.5 0 2.2-0.3 0.6-0.2 1-0.7 0.9-1.3-0.1-0.6-0.6-1.2-1.2-1.1q-0.4 0-0.8 0.1l0.3-0.1c-0.5 0.1-1 0.2-1.5 0.3l0.4-0.1q-0.7 0.1-1.4 0.2l-0.2 0.1h-0.2q0.3-0.1 0 0-0.3 0-0.6 0.1c-0.4 0.1-0.6 0.4-0.6 0.7-0.1 0.4 0.1 0.8 0.4 0.9z"/>
				<path id="&lt;Path&gt;" class="s1" d="m279.8 251.8q1 0 2-0.1 0.5 0 1 0 0.2 0 0.4 0l0.3-0.1c0.3 0 0.5 0 0.8-0.2 0.5-0.2 0.7-0.8 0.6-1.3 0-0.6-0.4-1-0.9-1.2-0.4-0.1-0.9 0-1.3 0.1q-0.7 0-1.3 0.2-0.9 0.3-1.9 0.6c-0.5 0.2-0.8 0.6-0.7 1.1 0 0.5 0.5 1 1 0.9z"/>
				<path id="&lt;Path&gt;" class="s1" d="m280.9 257l0.5 0.1q-0.3-0.1-0.6-0.2l0.4 0.2q0.2 0 0.4 0h0.4c0.3 0 0.6 0 0.9-0.1q0.5 0 1.1-0.1c0.5-0.1 1-0.2 1.3-0.6q0.2-0.2 0.3-0.6 0.1-0.3 0.1-0.5-0.1-0.7-0.7-1.1c-0.4-0.2-0.8-0.2-1.3-0.1l-0.4 0.1q-0.4 0-0.8 0.1c-0.3 0.1-0.6 0.1-0.8 0.2-0.4 0.2-0.9 0.3-1.2 0.6l0.3-0.1-0.4 0.1c-0.4 0.3-0.6 0.8-0.5 1.2q0.1 0.3 0.3 0.5c0.2 0.2 0.5 0.3 0.7 0.3z"/>
				<path id="&lt;Path&gt;" class="s1" d="m280.7 261.5q0.7-0.1 1.5-0.1 0.3-0.1 0.7-0.1 0.4-0.1 0.7-0.1c0.3-0.1 0.6-0.3 0.9-0.5 0.3-0.3 0.4-0.8 0.3-1.3-0.1-0.4-0.5-0.8-0.9-0.9-0.7-0.2-1.5 0.1-2.1 0.3q-0.7 0.2-1.5 0.4c-0.5 0.1-0.9 0.7-0.8 1.3 0 0.2 0.1 0.5 0.3 0.7 0.2 0.2 0.5 0.4 0.9 0.3z"/>
				<g id="&lt;Group&gt;">
					<path id="&lt;Path&gt;" class="s2" d="m333.5 222.2q3.6 9.9 7.2 19.8c0.8 2.1 1.6 4.3 1.1 6.4-0.9 3.9-5.2 4.6-8.6 5.3-2.1 0.4-4.3 0.4-6.4 0.1-1.6-0.3-4.1-2-5.5-2 5-0.1 9.9-1 14.6-2.8 0.5-0.2 1.1-0.4 1.4-0.9 0.5-0.7 0.3-1.7 0.1-2.6q-2.6-9.2-5.9-18.2c-0.9-2.7-2-5.4-3.6-7.8-2.8-4-9.6-8.7-14.3-10.1 4.2 1.2 9.6-2.5 13.7 0.9 3 2.6 4.8 8.3 6.2 11.9z"/>
				</g>
				<g id="&lt;Group&gt;">
					<path id="&lt;Path&gt;" class="s2" d="m349.5 268.6c3.2 4.9 4.4 11 4.6 16.8 0.2 7.4-1.2 15.4-6.4 20.6 5.4-10.6 4.3-23.9-1.5-34.3-0.4-0.8-0.9-1.5-1.6-2-2.2-1.3-4.9 1-6 3.3-1.3 2.8-1.8 5.9-1.6 9-0.6-4.5-0.5-9.1 0.3-13.5-2.5 3.6-4.1 7.9-4.3 12.3-0.8-4.3-0.5-8.8 1-12.9-2.9 3.1-4.7 7.2-5 11.4 0.4-4.4-1.1-8.5 1.8-12.6 5.8-8.2 13.9-5.6 18.7 1.9z"/>
				</g>
				<path id="&lt;Path&gt;" class="s1" d="m314.2 260.2c-4.9 2.7-8 8.4-9.5 13.6-1.4 4.9-1.7 10.1-1 15.1 0.9-7.1 3.6-13.9 7.9-19.6-1.9 4.9-2.3 10.4-1.1 15.6 0.3-6 2.2-12 5.5-17-1.2 4.8-1.5 9.9-0.8 14.8 1.2-5.2 2.7-10.3 5.6-14.8 2.7-4.1 7.1-6.4 12-7.2 1.8-0.3 3.6-0.4 5.4-0.5-0.9 0-3.3-1.7-4.2-2-1.9-0.6-3.9-0.9-5.8-0.9-3.2 0.1-6.8 0.8-10 1.4q-2.2 0.4-4 1.5z"/>
				<path id="&lt;Path&gt;" class="s1" d="m334.8 308.9c-2.8-2.5-4.4-6.3-4.2-10 2.3 7 10.3 11.6 17.5 10-3.6 1.1-7.2 2.1-10.9 2.5-11.1 1-18.2-6.1-22.2-15.9 1.2 2.8 5.8 6.6 8.1 8.7 3 2.8 7.6 4.6 11.7 4.7z"/>
				<path id="&lt;Path&gt;" class="s1" d="m297.8 279.8c1.4-4.9 2.8-9.8 5.7-14.1 1.9-2.7 7-6.7 10.3-6.9-6.4 0.4-11.1 1-16.6 4.3-4.4 2.8-9.4 6.3-10.8 11.7-0.6 2.4-0.5 4.9-0.4 7.4 2-4.1 4.3-8 6.9-11.6q-0.8 5.2-0.8 10.4 2.7-5.8 5.4-11.5 0.2 5.2 0.3 10.3z"/>
				<g id="&lt;Group&gt;">
					<path id="&lt;Path&gt;" class="s2" d="m282.6 268.8c-1 0.9-5.5 0.7-7.2 1.3-1.8 0.7-3.2 2.2-3.8 4-0.9 2.4 0.3 4 0.9 6.2 0.6 2.4 0.7 5.1 1.1 7.6q1.4 7.9 3.5 15.7c0.1 0.4 0.2 0.7 0.5 1 0.3 0.3 0.7 0.4 1.2 0.5q3.6 0.9 7.3 0.9c-2.3-0.2-4.3-2-5.3-4.1-1-2.2-1.3-4.6-1.5-6.9q-0.5-5.1-1-10.3c-0.3-2.8-0.6-5.7 0-8.5 0.7-2.9 2.2-5.5 4.3-7.4z"/>
				</g>
				<path id="&lt;Path&gt;" class="s1" d="m387.6 294.3c-2.3 6.7-4.1 12-9.8 16.5 0.7-0.5 3.8 0.2 5.1-0.5 1.6-0.9 2.1-1.9 2.8-3.6 1.7-3.9 1.8-8.2 1.9-12.4z"/>
				<path id="&lt;Path&gt;" class="s1" d="m391.2 222.5c-1.6-0.3-3.7-0.3-4.9-1.1 1.2-1.2 3.1-1.7 4.6-2.4-2.2-0.6-4.7-0.5-6.9 0.4-0.7 0.3-5.5 3.3-5 4.1 0.6 1.1 1.6 1.9 2.8 2.3-1 1-1.1 2.7-0.3 3.8 0.3 0.4 0.7 0.7 0.8 1.2 0.4 1.3-1.2 2.4-1.1 3.7 0.1 1.7 2.8 2.6 2.4 4.3-0.1 0.8-1 1.2-1.3 1.9-0.8 1.8 1.5 3.5 1.4 5.4-0.1 1.4-1.3 2.7-0.8 4 0.4 0.9 1.6 1.3 2 2.2 0.8 1.6-1.3 3.4-0.9 5.2 0.3 1.2 1.7 2 1.8 3.2 0.2 1.5-1.5 2.9-0.9 4.2 0.2 0.5 0.7 0.8 1 1.3 0.5 0.8 0.1 1.9 0.1 2.8 0 2.5 2.6 4.5 5.1 4.7 2.5 0.3 5-0.7 7.3-1.7q-3.4-0.8-6.9-1.6c2.6-0.4 5.1-1.5 7.2-3q-3.9-0.4-7.8-0.8 4.5-1.5 9-3c-3.4-0.1-6.7-0.8-9.9-2 2.7-0.6 5.2-1.7 7.5-3.2q-4.3-0.4-8.7-0.8c2.5-2.1 5.6-3.6 8.8-4.1q-3.7-1.3-7.4-2.6 3-1.7 6-3.4c-1-1.4-2.5-2.4-4.2-2.7 1.7-0.8 3.2-2 4.2-3.5-1.7-0.7-3.4-1.1-5.2-1.2q2.2-1.3 4.5-2.6-2.3-0.8-4.6-1.6c0.7-1.4 3.6-1.7 2.9-3.1-0.2-0.4-0.7-0.6-1.1-0.8q-2.5-0.7-5-0.9 2.1-1.6 4.3-3.2c-1.6-0.8-3.3-1.3-5.1-1.5q1.9-2.2 4.3-3.9z"/>
				<g id="&lt;Group&gt;">
					<path id="&lt;Path&gt;" class="s2" d="m398.8 230.3c-2.2-4.3-0.3-7.7-4.6-10.7 2.5 1.7 0.9 3.6 0.8 5.6-0.2 1.9 1.1 3.3 1.3 5.1 0.1 2.1-1.2 3.7 0.2 5.6 0.7 1 1.6 1.8 1.8 3 0.2 1.4-0.7 2.9-0.1 4.1 0.3 0.6 0.9 1 1 1.7 0.1 0.9-0.9 1.7-1 2.7 0 1.2 1.6 1.9 1.9 3 0.3 1.5-1.4 2.9-1 4.4 0.3 0.8 1.4 1.5 1.1 2.4-0.1 0.3-0.3 0.5-0.5 0.8-1.1 1.4-0.4 3.4-0.3 5.2 0.1 1.7-0.5 3.5-1.5 4.8 1.3-1.8 3.9-3.2 3.2-5.9-0.1-0.6-0.4-1.2-0.4-1.8-0.1-1.6 1.5-3 1.3-4.6-0.1-1.2-1.2-2.2-1.2-3.4 0-0.7 0.4-1.4 0.6-2.2 0.7-2.4-1.5-4.7-1.3-7.2 0.2-2 1.8-4.2 0.5-5.6-0.3-0.4-0.8-0.7-1.1-1.1-0.7-1.1 0.2-2.4 0.2-3.6 0-0.8-0.5-1.6-0.9-2.3z"/>
				</g>
				<g id="&lt;Group&gt;">
					<path id="&lt;Path&gt;" class="s2" d="m380 263.7c-4-1.1-10-1.3-13.1-4.2-2.5-2.3-3.6-5.8-6.3-7.9 1 0.8 1.9 5.9 2.7 7.4 1.4 2.3 3 4.3 5.6 5.1 3.9 1.2 7.7-1.3 11.1-0.4z"/>
				</g>
				<path id="&lt;Path&gt;" class="s1" d="m253.8 276c-0.1 2.1-0.1 4.3 0.4 6.4 1.2-2.4 4.7-7.1 2.2-9.4-2.2-2.1-7.6-0.5-9.6 1.2-1.7 1.5-1.6 5.3-2.9 6.4q2.9-2.4 5.9-4.7c-1.1 1.7-1.6 3.6-1.5 5.6 0 0.6 0.3 1.3 0.9 1.3 1-2.6 2.5-4.9 4.6-6.8z"/>
				<g id="&lt;Group&gt;">
					<path id="&lt;Path&gt;" class="s2" d="m388.8 307c-0.4 2.2-0.2 4.4-0.5 6.5-0.4 4.1-2.7 6.3-6.8 6.6-2.4 0.2-5.2 0-5.2-3.2 0 1.7 0.1 3.4 0.6 5 1.3 4.5 7.2 6.6 11.1 3.8 0.9-0.7 1.7-1.7 2.3-2.7 2.5-4.4 3.5-10.2 1.6-15.1 0 2.2-0.5 4.4-1.4 6.4 0.1-2.5-0.5-5.1-1.7-7.3z"/>
				</g>
				<path id="&lt;Path&gt;" class="s1" d="m402.9 322.7c0.4 6.6-3.8 12.5-4.6 19q0.8-7.8 1.6-15.6c-0.9 5.5-2.7 10.8-5.1 15.8 0.9-5.2 1.2-10.6 1-15.9-2.3 10.1-4.2 19-10.6 27.4-0.6 0.8-1.3 1.6-2.1 2.1-2 1.4-4.6 1.3-7 1-1.4-0.1-2.8-0.3-3.8-1.2 4.1 2.9 10 6.1 15.1 4.8 4.7-1.2 8.4-5.5 10.6-9.5 4.6-8.3 5.5-18.6 4.9-27.9z"/>
				<g id="&lt;Group&gt;">
					<path id="&lt;Path&gt;" class="s2" d="m403.1 286l3.6-2.2c0 0 3.2 10.5 3.8 34.7 0.6 24.1-2.6 41.6-10.6 51.6 8.3-19.3 8.3-48.2 8.1-58.1-0.1-9.9-4.9-26-4.9-26z"/>
				</g>
				<path id="&lt;Path&gt;" class="s1" d="m335.6 330.6c1.6 10.9 5.5 21.5 11.3 31-2.3-6.9-3.7-14-4.4-21.2 1.1 6 4.3 11.6 8.9 15.6-3.9-6.3-6.2-13.5-6.7-20.9q2.7 4.9 5.3 9.8c-2.2-5.3-3.5-11.1-3.7-16.9z"/>
				<g id="&lt;Group&gt;">
					<path id="&lt;Path&gt;" class="s2" d="m396.6 287.6c-0.5 0.6-1.5 0.7-1.8 1.5-0.4 0.9 0.6 1.8 1.2 2.5 0.9 1.1 1.2 2.5 1.2 3.9 0 1.4-0.2 3-1.2 4.1-0.9 1.1-2.7 1.6-3.8 0.6 1.7-4.3 1.1-9.4-1.5-13.3-0.1-0.3-0.3-0.6-0.3-0.8 0.1-0.3 0.3-0.5 0.5-0.6 1.4-1.1 7.7-0.9 5.7 2.1z"/>
				</g>
				<path id="&lt;Path&gt;" class="s1" d="m358.3 248.3c-4.6 10.9-1.8 24.6 4.6 34.2-3.7-2.2-6.8-5.5-8.8-9.3-2.8-5-2.5-9.6-1.4-15 0.3-1.7 0.4-3.1 1.2-4.7 1-1.9 3.6-3.4 4.4-5.2z"/>
				<g id="&lt;Group&gt;">
					<path id="&lt;Path&gt;" class="s2" d="m387.7 277.8c-0.6 1.2-0.7 2.6-0.2 3.8 0.4 0.7 1 1.4 1.8 1.3 0.6 0 1.1-0.5 1.3-1.1 0.7-1.4-0.1-3.4-1.7-3.9"/>
				</g>
				<path id="&lt;Path&gt;" class="s1" d="m242.4 321.1c1 6.3 10.2 6 14.7 6.1 3.4 0.2 6.4 1.1 9.7 1.6 3.5 0.5 7.6-0.7 10.8 0q-8.2-1.7-16.4-3.4c-3.5-0.8-7.1-1.6-10.1-3.5-3.3-2.2-5.6-5.6-7.7-8.9-1 2.6-1.4 5.4-1 8.1z"/>
				<path id="&lt;Path&gt;" class="s1" d="m132.2 278.9c0 4 0.9 8.1 2.7 11.7-0.3-5.9 0.5-11.8 2.5-17.3-1.4 4.1 0.3 11.9 1.9 15.9q1.7-8 3.4-16c-0.6 6 0.7 12.1 3.7 17.3-4.2-7.2-0.5-25.3 4.5-31.3-0.1 0.1-7.8-0.4-8.8-0.5-0.6 0-1.2 0-1.8 0.2-0.6 0.3-1 0.8-1.3 1.3-3.9 5.4-6.9 12-6.8 18.7z"/>
				<path id="&lt;Path&gt;" class="s1" d="m164.5 206.7c-5.6-2.9-11-1.1-13.8 4.4-8.7 17.3-15.2 35.2-20.7 53.8 0.9-3.2 5.8-6.9 7.6-9.9 5-8.5 6.6-17.1 10-26.2 1.3-3.4 3-6.7 3.7-10q2-3.8 4.1-7.6c1-1.8 2.7-3.9 4.7-3.3-0.7 6.7-2.2 13.2-4.4 19.5 2.9-6.7 7-13.7 8.8-20.7z"/>
				<path id="&lt;Path&gt;" class="s1" d="m167.7 91.1q0.2 0.4 0.5 0.8c-1.4-2.1 11.5-2.2 12.6-1.7 0.8-1.7 1.2-3.5 1.2-5.3-3.1-0.2-17.7-0.5-14.3 6.2z"/>
				<g id="&lt;Group&gt;">
					<path id="&lt;Path&gt;" class="s2" d="m169.6 93.8l2.7 1.9c3 0.4 6.2-0.1 8.9-1.5q-5.8-0.2-11.6-0.4z"/>
				</g>
				<path id="&lt;Path&gt;" class="s1" d="m310.5 66.6c3.6-4.4 6.2-9.7 9.2-14.6 1.4-2.2 2.7-4.6 4.7-6.5 1.9-1.9 4.3-3.1 6.8-4.2 5.2-2.4 10.6-4.6 16-6.8q4.2-1.8 8.4-3.5c2.7-1.1 5.6-2 8.1-3.5 1.5-0.8 0.5-3.2-1.1-2.7-3 0.8-6 2.3-8.9 3.5q-4.4 1.8-8.8 3.7c-5.5 2.2-11.1 4.1-16.4 6.7-5.1 2.4-8.3 5.9-11.3 10.6-3.1 5.1-6.8 10.5-8.7 16.2-0.4 1 1.2 2 2 1.1z"/>
				<path id="&lt;Path&gt;" class="s1" d="m166.8 42c2.6 2.2 6.1 3.6 9.2 5.1 2.9 1.5 6.3 2.7 8.8 4.8 2.3 2 3.2 5.1 3.6 8 0.3 2.8 0 6.2 1.7 8.6 0.9 1.4 2.9 0.2 2.2-1.3-1.3-2.8-0.8-6.1-1.4-9.1-0.5-3.1-1.8-6.1-4.2-8.1-2.5-2.2-5.7-3.4-8.7-4.8q-2.6-1.2-5.3-2.3c-1.7-0.7-3.4-1.6-5.3-2-0.6-0.1-1.1 0.6-0.6 1.1z"/>
				<path id="&lt;Path&gt;" class="s1" d="m363.5 22c2.2 0.1 4.5 1.8 4.5 4 0.1 2.6-2.6 4.3-4.9 5.5q-3.7 1.9-7.4 3.7c-0.8 0.5 3.8 5.2 4.5 5.7 2.1 1.3 4.9 2.1 7.1 0.9-1.6-1.7-3.9-2.9-5.7-4.5-0.5-0.5-0.9-1-1-1.6 0-0.8 0.7-1.5 1.4-1.8 0.8-0.3 1.6-0.3 2.4-0.4 4-0.7 6.3-4.7 8.1-8.3 0.5-1.1 1.4-2.4 2.6-2.2 1.1 0.1 1.7 1.3 1.8 2.4 0.9 4.9-2.2 9.5-5.1 13.4 10.4-3 9.4-17.6 3.2-24-5.2-5.3-15.8-5.6-19.9 1.1-1.7 2.8-2.3 6.1-2.4 9.4 2.1-1.8 8.1-3.6 10.8-3.3z"/>
				<path id="&lt;Path&gt;" class="s1" d="m161.2 49.9c-1-0.2-1.9-1.3-2.2-2.4-1.5-6.3 2-14.7 7.7-17.6 1.2-0.6 2.5-1 3.6-0.3 0.8 0.4 1.1 1.3 1.4 2.1 1.1 2.8 1.6 5.8 1.5 8.8q-2.1-1-4.3-1.6c-1.8-0.5-4-0.7-5.2 0.7-3.5 3.9 4.4 7.1 6.8 8.2-1-0.5-3.7 3.5-5.5 3.5 0.7-0.7 1.1-1.8 1.1-2.8-1.5-0.3-2.7 1.3-4.2 1.4q-0.3 0.1-0.7 0z"/>
			</g>
			<path id="&lt;Path&gt;" class="s3" d=""/>
		</g>
		<path id="&lt;Path&gt;" class="s2" d="m479.2 385.2c-1.3-3.6-2.6-7.4-3.9-10.8-8.8 8.6-15.8 17-24.8 25.9 8.2-5.4 12.8-8.7 21.3-13.5 1.2 3.6 2.6 7.3 3.9 10.8 7.1-6.2 23.7-23.9 25.2-26.1-9.4 6.2-13 8.6-21.7 13.7z"/>
		<path id="&lt;Path&gt;" class="s2" d="m31.9 385.2c1.2-3.6 2.6-7.4 3.9-10.8 8.7 8.6 15.7 17 24.7 25.9-8.2-5.4-12.8-8.7-21.3-13.5-1.2 3.6-2.6 7.3-3.8 10.8-7.2-6.2-23.8-23.9-25.3-26.1 9.4 6.2 13 8.6 21.8 13.7z"/>
	</g>
	<g id="TEXTS">
	</g>
</svg>